<?xml version="1.0" encoding="UTF-8" standalone="no"?> <svg width="512" height="512" viewBox="0 0 512 512" fill="none" xmlns="http://www.w3.org/2000/svg">
<path d="M88 400H72V416H88V400Z" fill="black"/>
<path d="M120 400H104V416H120V400Z" fill="black"/>
<path d="M440 400H424V416H440V400Z" fill="black"/>
<path d="M408 400H392V416H408V400Z" fill="black"/>
<path d="M440 336H424V352H440V336Z" fill="black"/>
<path d="M408 336H392V352H408V336Z" fill="black"/>
<path d="M88 336H72V352H88V336Z" fill="black"/>
<path d="M120 336H104V352H120V336Z" fill="black"/>
<path d="M352 208H160V224H352V208Z" fill="black"/>
<path d="M252.422 151.155L268.422 159.155C269.363 159.635 270.389 159.923 271.442 160.004C272.494 160.085 273.553 159.957 274.556 159.627C275.559 159.297 276.486 158.772 277.285 158.082C278.084 157.392 278.739 156.55 279.211 155.606C279.683 154.662 279.964 153.633 280.037 152.58C280.11 151.527 279.973 150.469 279.635 149.469C279.298 148.469 278.765 147.545 278.069 146.751C277.373 145.958 276.526 145.31 275.578 144.845L264 139.056V128C264 125.878 263.157 123.843 261.657 122.343C260.157 120.843 258.122 120 256 120C253.878 120 251.843 120.843 250.343 122.343C248.843 123.843 248 125.878 248 128V144C248 145.486 248.414 146.942 249.195 148.206C249.976 149.469 251.093 150.491 252.422 151.155V151.155Z" fill="black"/>
<path d="M24 480H488C490.122 480 492.157 479.157 493.657 477.657C495.157 476.157 496 474.122 496 472C496 472 495.972 311.367 495.963 311.268C495.908 310.661 479.589 261.468 479.589 261.468C479.058 259.876 478.039 258.491 476.677 257.509C475.315 256.528 473.679 256 472 256H376C378.122 256 380.157 255.157 381.657 253.657C383.157 252.157 384 250.122 384 248V184C384 181.878 383.157 179.843 381.657 178.343C380.157 176.843 378.122 176 376 176H351.584C350.07 161.069 344.393 146.864 335.201 135.001C326.01 123.138 313.672 114.095 299.592 108.9C290.722 97.8725 278.005 90.6127 264 88.581V80H312C314.122 80 316.157 79.1571 317.657 77.6569C319.157 76.1566 320 74.1217 320 72V40C320 37.8783 319.157 35.8434 317.657 34.3431C316.157 32.8429 314.122 32 312 32H256C253.878 32 251.843 32.8429 250.343 34.3431C248.843 35.8434 248 37.8783 248 40V88.581C233.994 90.6123 221.277 97.8721 212.407 108.9C198.315 114.074 185.964 123.112 176.769 134.979C167.574 146.846 161.906 161.062 160.414 176H136C133.878 176 131.843 176.843 130.343 178.343C128.843 179.843 128 181.878 128 184V248C128 250.122 128.843 252.157 130.343 253.657C131.843 255.157 133.878 256 136 256H40C38.321 256 36.6847 256.528 35.3226 257.51C33.9606 258.492 32.942 259.877 32.411 261.47C32.411 261.47 16.092 310.661 16.037 311.27C16.028 311.367 16 472 16 472C16 474.122 16.8429 476.157 18.3431 477.657C19.8434 479.157 21.8783 480 24 480ZM480 464H384V448H480V464ZM376 272H466.234L476.9 304H384V296C384 293.878 383.157 291.843 381.657 290.343C380.157 288.843 378.122 288 376 288V272ZM376 336C378.122 336 380.157 335.157 381.657 333.657C383.157 332.157 384 330.122 384 328V320H480V336H456V352H480V368H376V336ZM376 384H480V400H456V416H480V432H376V384ZM264 48H304V64H264V48ZM310.947 133.21C317.657 138.372 323.28 144.81 327.492 152.154C331.704 159.498 334.422 167.602 335.49 176H301.917C306.225 169.843 309.246 162.879 310.797 155.526C312.349 148.173 312.4 140.583 310.947 133.21V133.21ZM256 104C263.911 104 271.645 106.346 278.223 110.741C284.801 115.136 289.928 121.384 292.955 128.693C295.983 136.002 296.775 144.044 295.231 151.804C293.688 159.563 289.878 166.69 284.284 172.284C278.69 177.878 271.563 181.688 263.804 183.231C256.044 184.775 248.002 183.983 240.693 180.955C233.384 177.928 227.136 172.801 222.741 166.223C218.346 159.645 216 151.911 216 144C216.012 133.395 220.23 123.228 227.729 115.729C235.228 108.23 245.395 104.012 256 104V104ZM201.056 133.193C199.601 140.568 199.65 148.162 201.201 155.518C202.752 162.874 205.773 169.84 210.083 176H176.505C177.561 167.595 180.274 159.483 184.489 152.135C188.703 144.787 194.334 138.348 201.056 133.193ZM144 192H227.19C235.888 197.234 245.848 200 256 200C266.152 200 276.112 197.234 284.81 192H368V240H144V192ZM344 408V360H360V408H344ZM360 424V432H344V424H360ZM344 344V336H360V344H344ZM152 320V304H360V320H152ZM323.578 384.845C322.467 384.289 321.242 384 320 384C318.758 384 317.533 384.289 316.422 384.845L312 387.056V336H328V387.056L323.578 384.845ZM328 404.945V432H312V404.944L320 400.944L328 404.945ZM280 408V360H296V408H280ZM296 424V432H280V424H296ZM280 344V336H296V344H280ZM259.578 384.845C258.467 384.289 257.242 384 256 384C254.758 384 253.533 384.289 252.422 384.845L248 387.056V336H264V387.056L259.578 384.845ZM264 404.945V432H248V404.944L256 400.944L264 404.945ZM216 408V360H232V408H216ZM232 424V432H216V424H232ZM216 344V336H232V344H216ZM195.578 384.845C194.467 384.289 193.242 384 192 384C190.758 384 189.533 384.289 188.422 384.845L184 387.056V336H200V387.056L195.578 384.845ZM200 404.945V432H184V404.944L192 400.944L200 404.945ZM152 408V360H168V408H152ZM168 424V432H152V424H168ZM152 344V336H168V344H152ZM152 288V256H168V288H152ZM184 288V256H200V288H184ZM216 288V256H232V288H216ZM248 288V256H264V288H248ZM280 288V256H296V288H280ZM312 288V256H328V288H312ZM344 288V256H360V288H344ZM144 448H368V464H144V448ZM45.766 272H136V288C133.878 288 131.843 288.843 130.343 290.343C128.843 291.843 128 293.878 128 296V304H35.1L45.766 272ZM32 352H56V336H32V320H128V328C128 330.122 128.843 332.157 130.343 333.657C131.843 335.157 133.878 336 136 336V368H32V352ZM32 416H56V400H32V384H136V432H32V416ZM32 448H128V464H32V448Z" fill="black"/>
</svg>
