<?xml version="1.0" encoding="utf-8"?><!-- Uploaded to: SVG Repo, www.svgrepo.com, Generator: SVG Repo Mixer Tools -->
<svg fill="#000000" width="800px" height="800px" viewBox="0 0 24 24" id="qr-code" data-name="Flat Line" xmlns="http://www.w3.org/2000/svg" class="icon flat-line"><path id="secondary" d="M9,10H4A1,1,0,0,1,3,9V4A1,1,0,0,1,4,3H9a1,1,0,0,1,1,1V9A1,1,0,0,1,9,10ZM21,9V4a1,1,0,0,0-1-1H15a1,1,0,0,0-1,1V9a1,1,0,0,0,1,1h5A1,1,0,0,0,21,9ZM10,20V15a1,1,0,0,0-1-1H4a1,1,0,0,0-1,1v5a1,1,0,0,0,1,1H9A1,1,0,0,0,10,20Z" style="fill: rgb(44, 169, 188); stroke-width: 2;"></path><path id="primary" d="M21,14v5a2,2,0,0,1-2,2H14" style="fill: none; stroke: rgb(0, 0, 0); stroke-linecap: round; stroke-linejoin: round; stroke-width: 2;"></path><path id="primary-2" data-name="primary" d="M17,17H14V14h3ZM10,9V4A1,1,0,0,0,9,3H4A1,1,0,0,0,3,4V9a1,1,0,0,0,1,1H9A1,1,0,0,0,10,9Zm10,1H15a1,1,0,0,1-1-1V4a1,1,0,0,1,1-1h5a1,1,0,0,1,1,1V9A1,1,0,0,1,20,10ZM9,21H4a1,1,0,0,1-1-1V15a1,1,0,0,1,1-1H9a1,1,0,0,1,1,1v5A1,1,0,0,1,9,21Z" style="fill: none; stroke: rgb(0, 0, 0); stroke-linecap: round; stroke-linejoin: round; stroke-width: 2;"></path></svg>